# xmcd CD database file
#
# Track frame offsets:
#	150
#	12818
#	33420
#	46721
#	61011
#	75156
#	88757
#	97568
#	108067
#	123470
#	137694
#	161905
#	173857
#	187000
#	198563
#	210706
#
# Disc length: 2951 seconds
#
# Revision: 0
# Processed by: cddbd v1.5.2PL0 Copyright (c) Steve Scherf et al.
# Submitted via: CDex 1.81
#
DISCID=c20b8510
DTITLE=varios - Blues Power 50 Blues Artist Who Matter
DYEAR=2006
DGENRE=Blues
TTITLE0=Every Day I Have The Blues-B.B. King
TTITLE1=So Tired [Live]-Buddy Guy-Junior Wells
TTITLE2=Hot Dogs-Blind Lemon Jefferson
TTITLE3=Nobody's Fault But Mine_Blind Willie Johnson
TTITLE4=Little Wing [Live]-Jimi Hendrix
TTITLE5=Shake 'Em On Down-Bukka White
TTITLE6=Boll Weevil-Blind Willie McTell
TTITLE7=The Freeze-Albert Collins
TTITLE8=Cool Drink Of Water Blues-Tommy Johnson
TTITLE9=Why Worry [Live]-John Mayall
TTITLE10=I'd Rather Go Blind [Live]-Etta James
TTITLE11=Standin' On The Corner (Blue Yodel No. 9)-Jimmie Rodgers_Jimmy Rodgers
TTITLE12=Guitar Rag-Earl Hooker
TTITLE13=Don't Start Me To Talkin'-Sonny Boy Williamson I
TTITLE14=It Must Have Been The Devil-Otis Spann
TTITLE15=Baby, What You Want Me To Do-Jimmy Reed
EXTD=YEAR: 2006
EXTT0=
EXTT1=
EXTT2=
EXTT3=
EXTT4=
EXTT5=
EXTT6=
EXTT7=
EXTT8=
EXTT9=
EXTT10=
EXTT11=
EXTT12=
EXTT13=
EXTT14=
EXTT15=
PLAYORDER=
